<svg width="20" height="20" viewBox="0 0 20 20" fill="none" xmlns="http://www.w3.org/2000/svg">
<path d="M10 6.77734C9.58545 6.77734 9.25 7.11316 9.25 7.52734V15.5642C9.25 15.9788 9.58545 16.3142 10 16.3142C10.4146 16.3142 10.75 15.9788 10.75 15.5642V7.52734C10.75 7.11316 10.4146 6.77734 10 6.77734Z" fill="#292929"/>
<path d="M6.29102 9.86816C5.87646 9.86816 5.54102 10.204 5.54102 10.6182V15.5642C5.54102 15.9788 5.87646 16.3142 6.29102 16.3142C6.70557 16.3142 7.04102 15.9788 7.04102 15.5642V10.6182C7.04102 10.204 6.70557 9.86816 6.29102 9.86816Z" fill="#292929"/>
<path d="M13.709 3.68652C13.2944 3.68652 12.959 4.02234 12.959 4.43652V15.5646C12.959 15.9791 13.2944 16.3146 13.709 16.3146C14.1235 16.3146 14.459 15.9791 14.459 15.5646V4.43652C14.459 4.02234 14.1235 3.68652 13.709 3.68652Z" fill="#292929"/>
<path d="M16.4286 0H3.57143C1.60226 0 0 1.60226 0 3.57143V16.4286C0 18.3977 1.60226 20 3.57143 20H16.4286C18.3977 20 20 18.3977 20 16.4286V3.57143C20 1.60226 18.3977 0 16.4286 0ZM18.5714 16.4286C18.5714 17.6102 17.6102 18.5714 16.4286 18.5714H3.57143C2.38979 18.5714 1.42857 17.6102 1.42857 16.4286V3.57143C1.42857 2.38979 2.38979 1.42857 3.57143 1.42857H16.4286C17.6102 1.42857 18.5714 2.38979 18.5714 3.57143V16.4286Z" fill="#292929"/>
</svg>
