<svg width="68" height="68" viewBox="0 0 68 68" fill="none" xmlns="http://www.w3.org/2000/svg">
<path d="M27.4837 32.0167C26.3503 30.8834 24.6503 30.8834 23.517 32.0167C22.3837 33.15 22.3837 34.85 23.517 35.9834L32.017 44.4834C32.5837 45.05 33.1503 45.3334 34.0003 45.3334C34.8503 45.3334 35.417 45.05 35.9837 44.4834L55.817 21.8167C56.667 20.4 56.667 18.7 55.2503 17.85C54.117 17 52.417 17 51.567 18.1334L34.0003 38.25L27.4837 32.0167Z" fill="#FF7235"/>
<path d="M59.5003 31.1665C57.8003 31.1665 56.667 32.2998 56.667 33.9998C56.667 46.4665 46.467 56.6665 34.0003 56.6665C21.5337 56.6665 11.3337 46.4665 11.3337 33.9998C11.3337 28.0498 13.6003 22.3832 17.8503 18.1332C22.1003 13.5998 27.767 11.3332 34.0003 11.3332C35.7003 11.3332 37.6837 11.6165 39.3837 11.8998C40.8003 12.4665 42.5003 11.6165 43.067 9.9165C43.6337 8.2165 42.5003 7.08317 41.0837 6.5165H40.8003C38.5337 5.94984 36.267 5.6665 34.0003 5.6665C18.417 5.6665 5.66699 18.4165 5.66699 34.2832C5.66699 41.6498 8.78366 49.0165 13.8837 54.1165C19.267 59.4998 26.3503 62.3332 33.717 62.3332C49.3003 62.3332 62.0503 49.5832 62.0503 33.9998C62.3337 32.2998 60.917 31.1665 59.5003 31.1665Z" fill="#FF7235"/>
</svg>
