<svg width="24" height="24" viewBox="0 0 24 24" fill="none" xmlns="http://www.w3.org/2000/svg">
<g clip-path="url(#clip0_618_3320)">
<path d="M4.35718 7.74916H20.6429M9.10718 7.74916V7.07059C9.10718 6.17075 9.46464 5.30776 10.1009 4.67148C10.7372 4.0352 11.6002 3.67773 12.5 3.67773C13.3999 3.67773 14.2629 4.0352 14.8991 4.67148C15.5354 5.30776 15.8929 6.17075 15.8929 7.07059V7.74916M10.4643 11.8219V17.2532M14.5357 11.8219V17.2532M6.39289 7.74916H18.6072V19.9634C18.6072 20.3234 18.4642 20.6686 18.2097 20.9231C17.9552 21.1776 17.61 21.3206 17.25 21.3206H7.75004C7.3901 21.3206 7.0449 21.1776 6.79039 20.9231C6.53588 20.6686 6.39289 20.3234 6.39289 19.9634V7.74916Z" stroke="black" stroke-width="1.5" stroke-linecap="round" stroke-linejoin="round"/>
</g>
<defs>
<clipPath id="clip0_618_3320">
<rect width="19" height="19" fill="white" transform="translate(3 3)"/>
</clipPath>
</defs>
</svg>
