<svg width="20" height="22" viewBox="0 0 20 22" fill="none" xmlns="http://www.w3.org/2000/svg">
<path d="M11.656 3.7627H5.21577C4.84302 3.7627 4.54077 4.06495 4.54077 4.4377C4.54077 4.81045 4.84302 5.1127 5.21577 5.1127H11.656C12.0288 5.1127 12.331 4.81045 12.331 4.4377C12.331 4.06495 12.0295 3.7627 11.656 3.7627Z" fill="#C2C2C2"/>
<path d="M8.86227 6.76465H5.21577C4.84302 6.76465 4.54077 7.0669 4.54077 7.43965C4.54077 7.8124 4.84302 8.11465 5.21577 8.11465H8.86227C9.23502 8.11465 9.53727 7.8124 9.53727 7.43965C9.53727 7.0669 9.23502 6.76465 8.86227 6.76465Z" fill="#C2C2C2"/>
<path d="M17.0523 0H3.84652C2.22165 0 0.89959 1.32152 0.89959 2.94574V5.09856H0.664722C0.297648 5.09856 0 5.39609 0 5.76301C0 6.12994 0.297648 6.42746 0.664722 6.42746H0.900329V10.3359H0.664722C0.297648 10.3359 0 10.6334 0 11.0004C0 11.3673 0.297648 11.6648 0.664722 11.6648H0.900329V15.5725H0.664722C0.297648 15.5725 0 15.8701 0 16.237C0 16.6039 0.297648 16.9014 0.664722 16.9014H0.900329V19.0543C0.900329 20.6785 2.22239 22 3.84726 22H17.0531C18.6779 22 20 20.6785 20 19.0543V2.94574C19.9993 1.32152 18.6779 0 17.0523 0ZM2.22903 19.055V16.9022H2.46464C2.83171 16.9022 3.12936 16.6047 3.12936 16.2377C3.12936 15.8708 2.83171 15.5733 2.46464 15.5733H2.22903V11.6648H2.46464C2.83171 11.6648 3.12936 11.3673 3.12936 11.0004C3.12936 10.6334 2.83171 10.3359 2.46464 10.3359H2.22903V6.4282H2.46464C2.83171 6.4282 3.12936 6.13068 3.12936 5.76375C3.12936 5.39683 2.83171 5.0993 2.46464 5.0993H2.22903V2.94574C2.22903 2.05463 2.95432 1.32964 3.84652 1.32964H14.6896V20.6718H3.84652C2.95506 20.6718 2.22903 19.9461 2.22903 19.055ZM18.6698 19.055C18.6698 19.9461 17.9445 20.6711 17.0523 20.6711H16.0191V1.3289H17.0523C17.9445 1.3289 18.6698 2.05389 18.6698 2.945V19.055Z" fill="#C2C2C2"/>
</svg>
