<svg width="24" height="24" viewBox="0 0 24 24" fill="none" xmlns="http://www.w3.org/2000/svg">
<mask id="mask0_320_51" style="mask-type:alpha" maskUnits="userSpaceOnUse" x="0" y="0" width="24" height="24">
<rect width="24" height="24" fill="#D9D9D9"/>
</mask>
<g mask="url(#mask0_320_51)">
<path d="M6.65375 21.5L5.904 20.75V16.6152H2.5V15.1155L3.9615 12.3595V9.69225H2.5V8.19225H10.8077V9.69225H9.34625V12.3595L10.8077 15.1155V16.6152H7.40375V20.75L6.65375 21.5ZM12.2213 19.5V18H19.6923C19.7821 18 19.8558 17.9712 19.9135 17.9135C19.9712 17.8558 20 17.7821 20 17.6923V6.30775C20 6.21792 19.9712 6.14417 19.9135 6.0865C19.8558 6.02883 19.7821 6 19.6923 6H2.5C2.5 5.591 2.64775 5.23875 2.94325 4.94325C3.23875 4.64775 3.591 4.5 4 4.5H19.6923C20.1974 4.5 20.625 4.675 20.975 5.025C21.325 5.375 21.5 5.80258 21.5 6.30775V17.6923C21.5 18.1974 21.325 18.625 20.975 18.975C20.625 19.325 20.1974 19.5 19.6923 19.5H12.2213ZM4.223 15.1155H9.08475L7.84625 12.7942V9.69225H5.4615V12.7942L4.223 15.1155Z" fill="#C2C2C2"/>
</g>
</svg>
