<svg width="24" height="24" viewBox="0 0 24 24" fill="none" xmlns="http://www.w3.org/2000/svg">
<path d="M8.14799 16.0161L9.73289 15.5589L19.2756 5.90248C19.3508 5.82535 19.3928 5.72171 19.3922 5.61395C19.3917 5.50618 19.3489 5.40294 19.2729 5.32652L18.7014 4.74875C18.6644 4.71081 18.6203 4.6806 18.5716 4.65989C18.5229 4.63918 18.4705 4.62838 18.4175 4.62813C18.3646 4.62788 18.3121 4.63818 18.2632 4.65842C18.2143 4.67867 18.1699 4.70846 18.1326 4.74605L8.61509 14.3773L8.14799 16.0161ZM19.8327 3.60402L20.4042 4.18268C21.1926 4.98094 21.1998 6.26876 20.4186 7.05892L10.5852 17.0105L7.19759 17.9861C7.09518 18.0149 6.9881 18.0232 6.88247 18.0106C6.77684 17.998 6.67473 17.9647 6.58196 17.9127C6.48919 17.8606 6.40759 17.7908 6.34181 17.7072C6.27603 17.6236 6.22737 17.5278 6.19859 17.4254C6.15446 17.2769 6.15383 17.1189 6.1968 16.97L7.18229 13.5142L16.9896 3.58872C17.1761 3.40095 17.3981 3.25219 17.6427 3.15112C17.8872 3.05005 18.1495 2.99869 18.4141 3.00003C18.6788 3.00137 18.9405 3.05538 19.1841 3.15893C19.4276 3.26247 19.6481 3.41437 19.8327 3.60402ZM9.46559 4.64166C9.91199 4.64166 10.2738 5.00794 10.2738 5.45971C10.2745 5.5665 10.2542 5.67239 10.2139 5.77132C10.1737 5.87025 10.1143 5.96027 10.0393 6.03624C9.9642 6.11222 9.8749 6.17266 9.77646 6.2141C9.67803 6.25554 9.57239 6.27717 9.46559 6.27776H6.23279C5.34 6.27776 4.6164 7.01032 4.6164 7.91297V17.7278C4.6164 18.6313 5.34 19.3639 6.23279 19.3639H15.9312C16.824 19.3639 17.5485 18.6313 17.5485 17.7278V14.4565C17.5485 14.0047 17.9103 13.6384 18.3567 13.6384C18.8031 13.6384 19.1649 14.0047 19.1649 14.4574V17.7278C19.1649 19.5349 17.7168 21 15.9312 21H6.23279C4.4472 21 3 19.5349 3 17.7278V7.91297C3 6.10677 4.4472 4.64166 6.23279 4.64166H9.46559Z" fill="#C2C2C2"/>
</svg>
