<svg width="32" height="32" viewBox="0 0 32 32" fill="none" xmlns="http://www.w3.org/2000/svg">
<path d="M16.0001 17.8658L9.46673 24.3991C9.22229 24.6435 8.91118 24.7658 8.5334 24.7658C8.15562 24.7658 7.84451 24.6435 7.60006 24.3991C7.35562 24.1546 7.2334 23.8435 7.2334 23.4658C7.2334 23.088 7.35562 22.7769 7.60006 22.5324L14.1334 15.9991L7.60006 9.46575C7.35562 9.22131 7.2334 8.9102 7.2334 8.53242C7.2334 8.15464 7.35562 7.84353 7.60006 7.59909C7.84451 7.35464 8.15562 7.23242 8.5334 7.23242C8.91118 7.23242 9.22229 7.35464 9.46673 7.59909L16.0001 14.1324L22.5334 7.59909C22.7778 7.35464 23.089 7.23242 23.4667 7.23242C23.8445 7.23242 24.1556 7.35464 24.4001 7.59909C24.6445 7.84353 24.7667 8.15464 24.7667 8.53242C24.7667 8.9102 24.6445 9.22131 24.4001 9.46575L17.8667 15.9991L24.4001 22.5324C24.6445 22.7769 24.7667 23.088 24.7667 23.4658C24.7667 23.8435 24.6445 24.1546 24.4001 24.3991C24.1556 24.6435 23.8445 24.7658 23.4667 24.7658C23.089 24.7658 22.7778 24.6435 22.5334 24.3991L16.0001 17.8658Z" fill="black"/>
</svg>
