<svg width="13" height="13" viewBox="0 0 13 13" fill="none" xmlns="http://www.w3.org/2000/svg">
<path d="M5.278 0H7.722C8.544 0 9.191 2.19792e-07 9.712 0.0430002C10.242 0.0860002 10.686 0.176 11.089 0.381C11.7478 0.716597 12.2834 1.2522 12.619 1.911C12.824 2.314 12.914 2.758 12.957 3.289C13 3.809 13 4.457 13 5.278V7.722C13 8.544 13 9.191 12.957 9.712C12.914 10.242 12.824 10.686 12.619 11.089C12.2834 11.7478 11.7478 12.2834 11.089 12.619C10.686 12.824 10.242 12.914 9.711 12.957C9.191 13 8.543 13 7.722 13H4.122C2.34 13 1.447 10.846 2.707 9.586L7.543 4.75H5C4.86739 4.75 4.74021 4.69732 4.64645 4.60355C4.55268 4.50979 4.5 4.38261 4.5 4.25C4.5 4.11739 4.55268 3.99021 4.64645 3.89645C4.74021 3.80268 4.86739 3.75 5 3.75H8.75C8.88261 3.75 9.00979 3.80268 9.10355 3.89645C9.19732 3.99021 9.25 4.11739 9.25 4.25V8C9.25 8.13261 9.19732 8.25979 9.10355 8.35355C9.00979 8.44732 8.88261 8.5 8.75 8.5C8.61739 8.5 8.49021 8.44732 8.39645 8.35355C8.30268 8.25979 8.25 8.13261 8.25 8V5.457L3.414 10.293C2.784 10.923 3.23 12 4.121 12H7.7C8.548 12 9.155 12 9.63 11.96C10.099 11.922 10.396 11.85 10.635 11.727C11.1051 11.4874 11.4874 11.1051 11.727 10.635C11.849 10.396 11.922 10.099 11.961 9.63C12 9.154 12 8.548 12 7.7V5.3C12 4.452 12 3.845 11.96 3.37C11.922 2.901 11.85 2.604 11.727 2.365C11.4875 1.89451 11.1053 1.51189 10.635 1.272C10.396 1.151 10.099 1.078 9.63 1.039C9.154 1 8.548 1 7.7 1H5.3C4.452 1 3.845 1 3.37 1.04C2.901 1.078 2.604 1.15 2.365 1.272C1.89435 1.51172 1.51172 1.89435 1.272 2.365C1.151 2.604 1.078 2.901 1.039 3.37C1 3.845 1 4.452 1 5.3V8C1 8.13261 0.947321 8.25979 0.853553 8.35355C0.759785 8.44732 0.632608 8.5 0.5 8.5C0.367392 8.5 0.240215 8.44732 0.146447 8.35355C0.0526785 8.25979 0 8.13261 0 8V5.278C0 4.457 2.19792e-07 3.81 0.0430002 3.288C0.0860002 2.758 0.176 2.314 0.381 1.911C0.716597 1.2522 1.2522 0.716597 1.911 0.381C2.314 0.176 2.758 0.0860002 3.289 0.0430002C3.809 2.19792e-07 4.457 0 5.278 0Z" fill="#8F8F8F"/>
</svg>
