<svg width="4" height="18" viewBox="0 0 4 18" fill="none" xmlns="http://www.w3.org/2000/svg">
<path d="M3.5 1.5C3.5 0.675 2.825 -2.95052e-08 2 -6.55671e-08C1.175 -1.01629e-07 0.5 0.675 0.5 1.5C0.5 2.325 1.175 3 2 3C2.825 3 3.5 2.325 3.5 1.5ZM3.5 16.5C3.5 15.675 2.825 15 2 15C1.175 15 0.499999 15.675 0.499999 16.5C0.499999 17.325 1.175 18 2 18C2.825 18 3.5 17.325 3.5 16.5ZM3.5 9C3.5 8.175 2.825 7.5 2 7.5C1.175 7.5 0.5 8.175 0.5 9C0.5 9.825 1.175 10.5 2 10.5C2.825 10.5 3.5 9.825 3.5 9Z" fill="black"/>
</svg>
