<svg width="24" height="24" viewBox="0 0 24 24" fill="none" xmlns="http://www.w3.org/2000/svg">
<path d="M14.1429 8.68028C14.1096 8.77713 14.0946 8.88033 14.0986 8.98371C14.1026 9.08709 14.1256 9.18852 14.1662 9.28193C14.2069 9.37534 14.2643 9.45881 14.335 9.52734C14.4058 9.59587 14.4885 9.64806 14.5781 9.68078C14.6677 9.7135 14.7624 9.72608 14.8565 9.71777C14.9506 9.70946 15.0423 9.68042 15.1259 9.6324C15.2096 9.58438 15.2836 9.51836 15.3434 9.43829C15.4032 9.35822 15.4477 9.26576 15.4741 9.16642L14.1429 8.68028ZM17.3474 3.01271C17.4062 2.81903 17.3925 2.60768 17.3091 2.42515C17.2257 2.24262 17.0795 2.10386 16.9027 2.03939C16.8152 2.00747 16.7228 1.99475 16.6308 2.00196C16.5387 2.00917 16.4489 2.03616 16.3664 2.0814C16.1998 2.17276 16.0731 2.33289 16.0143 2.52656L17.3474 3.01271ZM6.6526 8.68028C6.62346 8.77618 6.61185 8.87742 6.61843 8.97823C6.62501 9.07905 6.64964 9.17745 6.69094 9.26783C6.73223 9.35821 6.78937 9.4388 6.85909 9.50499C6.92881 9.57117 7.00974 9.62167 7.09728 9.65359C7.18481 9.68551 7.27722 9.69823 7.36924 9.69102C7.46126 9.68382 7.55109 9.65682 7.63359 9.61159C7.71608 9.56635 7.78964 9.50375 7.85006 9.42737C7.91047 9.35099 7.95657 9.26232 7.9857 9.16642L6.6526 8.68028ZM9.85804 3.01271C9.88718 2.91681 9.89879 2.81556 9.89221 2.71475C9.88563 2.61394 9.86099 2.51553 9.8197 2.42515C9.77841 2.33477 9.72127 2.25419 9.65155 2.188C9.58183 2.12181 9.5009 2.07131 9.41336 2.03939C9.32583 2.00747 9.23341 1.99475 9.14139 2.00196C9.04937 2.00917 8.95955 2.03616 8.87705 2.0814C8.79455 2.12664 8.721 2.18923 8.66058 2.26561C8.60017 2.34199 8.55407 2.43067 8.52494 2.52656L9.85804 3.01271ZM3.94894 3.53885H20.0511V2.00042H3.94894V3.53885ZM20.0511 3.53885C20.9039 3.53885 21.5957 4.29678 21.5957 5.23112H23C23 4.37429 22.6893 3.55254 22.1363 2.94667C21.5832 2.3408 20.8332 2.00042 20.0511 2.00042V3.53885ZM21.5957 5.23112V18.7693H23V5.23112H21.5957ZM21.5957 18.7693C21.5957 19.2181 21.433 19.6486 21.1433 19.9659C20.8536 20.2833 20.4607 20.4616 20.0511 20.4616V22C20.8332 22 21.5832 21.6596 22.1363 21.0537C22.6893 20.4479 23 19.6261 23 18.7693H21.5957ZM20.0511 20.4616H3.94894V22H20.0511V20.4616ZM3.94894 20.4616C3.53926 20.4616 3.14637 20.2833 2.85668 19.9659C2.567 19.6486 2.40426 19.2181 2.40426 18.7693H1C1 19.6261 1.31069 20.4479 1.86372 21.0537C2.41676 21.6596 3.16683 22 3.94894 22V20.4616ZM2.40426 18.7693V5.23112H1V18.7693H2.40426ZM2.40426 5.23112C2.40426 4.29678 3.09609 3.53885 3.94894 3.53885V2.00042C3.16683 2.00042 2.41676 2.3408 1.86372 2.94667C1.31069 3.55254 1 4.37429 1 5.23112H2.40426ZM1.70213 9.69257H22.2979V8.15414H1.70213V9.69257ZM15.4741 9.16642L17.3474 3.01271L16.0143 2.52656L14.1429 8.68028L15.4741 9.16642ZM7.9857 9.16642L9.85804 3.01271L8.52494 2.52656L6.6526 8.68028L7.9857 9.16642Z" fill="#C2C2C2"/>
</svg>
