<svg width="24" height="24" viewBox="0 0 24 24" fill="none" xmlns="http://www.w3.org/2000/svg">
<path d="M14.289 8.76341C14.2535 8.85784 14.2374 8.95846 14.2417 9.05926C14.246 9.16006 14.2705 9.25895 14.3139 9.35003C14.3573 9.4411 14.4187 9.52249 14.4942 9.58931C14.5698 9.65613 14.6581 9.70702 14.7538 9.73892C14.8495 9.77082 14.9507 9.78309 15.0513 9.77498C15.1518 9.76688 15.2497 9.73857 15.3391 9.69174C15.4284 9.64492 15.5074 9.58055 15.5713 9.50248C15.6353 9.42442 15.6828 9.33426 15.711 9.23741L14.289 8.76341ZM17.712 3.23741C17.7749 3.04857 17.7601 2.8425 17.671 2.66453C17.582 2.48656 17.4258 2.35127 17.237 2.28841C17.1435 2.25729 17.0448 2.24488 16.9465 2.25191C16.8482 2.25894 16.7522 2.28526 16.6641 2.32936C16.4862 2.41844 16.3509 2.57457 16.288 2.76341L17.712 3.23741ZM6.288 8.76341C6.25688 8.85691 6.24447 8.95563 6.2515 9.05392C6.25853 9.15221 6.28485 9.24816 6.32896 9.33628C6.37306 9.42441 6.4341 9.50298 6.50857 9.56751C6.58304 9.63205 6.6695 9.68129 6.763 9.71241C6.8565 9.74353 6.95522 9.75593 7.05351 9.74891C7.15181 9.74188 7.24775 9.71556 7.33588 9.67145C7.424 9.62735 7.50257 9.56631 7.56711 9.49184C7.63164 9.41737 7.68088 9.33091 7.712 9.23741L6.288 8.76341ZM9.712 3.23741C9.74312 3.14391 9.75553 3.04519 9.7485 2.9469C9.74147 2.8486 9.71515 2.75266 9.67104 2.66453C9.62694 2.57641 9.5659 2.49784 9.49143 2.4333C9.41696 2.36877 9.3305 2.31953 9.237 2.28841C9.1435 2.25729 9.04478 2.24488 8.94649 2.25191C8.84819 2.25894 8.75225 2.28526 8.66412 2.32936C8.576 2.37347 8.49743 2.43451 8.43289 2.50898C8.36836 2.58345 8.31912 2.66991 8.288 2.76341L9.712 3.23741ZM3.4 3.75041H20.6V2.25041H3.4V3.75041ZM20.6 3.75041C21.511 3.75041 22.25 4.48941 22.25 5.40041H23.75C23.75 4.56498 23.4181 3.76376 22.8274 3.17302C22.2366 2.58228 21.4354 2.25041 20.6 2.25041V3.75041ZM22.25 5.40041V18.6004H23.75V5.40041H22.25ZM22.25 18.6004C22.25 19.038 22.0762 19.4577 21.7667 19.7671C21.4573 20.0766 21.0376 20.2504 20.6 20.2504V21.7504C21.4354 21.7504 22.2366 21.4185 22.8274 20.8278C23.4181 20.2371 23.75 19.4358 23.75 18.6004H22.25ZM20.6 20.2504H3.4V21.7504H20.6V20.2504ZM3.4 20.2504C2.96239 20.2504 2.54271 20.0766 2.23327 19.7671C1.92384 19.4577 1.75 19.038 1.75 18.6004H0.25C0.25 19.4358 0.581874 20.2371 1.17261 20.8278C1.76335 21.4185 2.56457 21.7504 3.4 21.7504V20.2504ZM1.75 18.6004V5.40041H0.25V18.6004H1.75ZM1.75 5.40041C1.75 4.48941 2.489 3.75041 3.4 3.75041V2.25041C2.56457 2.25041 1.76335 2.58228 1.17261 3.17302C0.581874 3.76376 0.25 4.56498 0.25 5.40041H1.75ZM1 9.75041H23V8.25041H1V9.75041ZM15.711 9.23741L17.712 3.23741L16.288 2.76341L14.289 8.76341L15.711 9.23741ZM7.712 9.23741L9.712 3.23741L8.288 2.76341L6.288 8.76341L7.712 9.23741Z" fill="#292929"/>
</svg>
