<svg width="15" height="15" viewBox="0 0 15 15" fill="none" xmlns="http://www.w3.org/2000/svg">
<path d="M7.5 7C6.5375 7 5.71358 6.65733 5.02825 5.972C4.34275 5.2865 4 4.4625 4 3.5C4 2.5375 4.34275 1.71358 5.02825 1.02825C5.71358 0.34275 6.5375 0 7.5 0C8.4625 0 9.28642 0.34275 9.97175 1.02825C10.6573 1.71358 11 2.5375 11 3.5C11 4.4625 10.6573 5.2865 9.97175 5.972C9.28642 6.65733 8.4625 7 7.5 7ZM0 14.6155V12.3923C0 11.9026 0.133 11.4491 0.399 11.0317C0.665 10.6144 1.0205 10.2936 1.4655 10.0693C2.45383 9.58475 3.45092 9.22133 4.45675 8.979C5.46258 8.73667 6.477 8.6155 7.5 8.6155C8.523 8.6155 9.53742 8.73667 10.5433 8.979C11.5491 9.22133 12.5462 9.58475 13.5345 10.0693C13.9795 10.2936 14.335 10.6144 14.601 11.0317C14.867 11.4491 15 11.9026 15 12.3923V14.6155H0ZM1.5 13.1155H13.5V12.3923C13.5 12.1898 13.4413 12.0023 13.324 11.8298C13.2067 11.6574 13.0474 11.5168 12.8462 11.4078C11.9846 10.9834 11.1061 10.6619 10.2107 10.4433C9.31525 10.2248 8.41167 10.1155 7.5 10.1155C6.58833 10.1155 5.68475 10.2248 4.78925 10.4433C3.89392 10.6619 3.01542 10.9834 2.15375 11.4078C1.95258 11.5168 1.79333 11.6574 1.676 11.8298C1.55867 12.0023 1.5 12.1898 1.5 12.3923V13.1155ZM7.5 5.5C8.05 5.5 8.52083 5.30417 8.9125 4.9125C9.30417 4.52083 9.5 4.05 9.5 3.5C9.5 2.95 9.30417 2.47917 8.9125 2.0875C8.52083 1.69583 8.05 1.5 7.5 1.5C6.95 1.5 6.47917 1.69583 6.0875 2.0875C5.69583 2.47917 5.5 2.95 5.5 3.5C5.5 4.05 5.69583 4.52083 6.0875 4.9125C6.47917 5.30417 6.95 5.5 7.5 5.5Z" fill="#292929"/>
</svg>
