<svg width="20" height="20" viewBox="0 0 20 20" fill="none" xmlns="http://www.w3.org/2000/svg">
<path d="M11.4633 10.0022L7.65088 6.18978C7.52128 6.06019 7.45498 5.89729 7.45198 5.70109C7.44897 5.5049 7.51527 5.33901 7.65088 5.20342C7.78648 5.06781 7.95087 5 8.14406 5C8.33725 5 8.50164 5.06781 8.63724 5.20342L12.8438 9.41002C12.9315 9.49762 12.9933 9.59002 13.0292 9.68722C13.0653 9.78441 13.0833 9.88941 13.0833 10.0022C13.0833 10.115 13.0653 10.22 13.0292 10.3172C12.9933 10.4144 12.9315 10.5068 12.8438 10.5944L8.63724 14.801C8.50765 14.9306 8.34475 14.9969 8.14855 14.9999C7.95237 15.0029 7.78648 14.9366 7.65088 14.801C7.51527 14.6654 7.44746 14.501 7.44746 14.3078C7.44746 14.1146 7.51527 13.9502 7.65088 13.8146L11.4633 10.0022Z" fill="#292929"/>
</svg>
