<svg width="20" height="20" viewBox="0 0 20 20" fill="none" xmlns="http://www.w3.org/2000/svg">
<path fill-rule="evenodd" clip-rule="evenodd" d="M4.16667 8.75C4.16667 6.21869 6.21869 4.16667 8.75 4.16667C11.2813 4.16667 13.3333 6.21869 13.3333 8.75C13.3333 11.2813 11.2813 13.3333 8.75 13.3333C6.21869 13.3333 4.16667 11.2813 4.16667 8.75ZM8.75 2.5C5.29822 2.5 2.5 5.29822 2.5 8.75C2.5 12.2018 5.29822 15 8.75 15C10.1754 15 11.4894 14.5228 12.5409 13.7195L16.6667 17.8453L17.8452 16.6668L13.7194 12.541C14.5228 11.4895 15 10.1755 15 8.75C15 5.29822 12.2018 2.5 8.75 2.5Z" fill="#8F8F8F"/>
</svg>
