<svg width="30" height="30" viewBox="0 0 30 30" fill="none" xmlns="http://www.w3.org/2000/svg">
<path d="M11.204 6.21002C12.8933 3.18068 13.7373 1.66602 15 1.66602C16.2627 1.66602 17.1067 3.18068 18.796 6.21002L19.2333 6.99402C19.7133 7.85535 19.9533 8.28602 20.3267 8.57002C20.7 8.85402 21.1667 8.95935 22.1 9.17002L22.948 9.36202C26.228 10.1047 27.8667 10.4753 28.2573 11.73C28.6467 12.9833 27.5293 14.2913 25.2933 16.906L24.7147 17.582C24.08 18.3247 23.7613 18.6967 23.6187 19.1553C23.476 19.6153 23.524 20.1113 23.62 21.102L23.708 22.0047C24.0453 25.494 24.2147 27.238 23.1933 28.0127C22.172 28.7874 20.636 28.0807 17.5667 26.6673L16.7707 26.302C15.8987 25.8993 15.4627 25.6993 15 25.6993C14.5373 25.6993 14.1013 25.8993 13.2293 26.302L12.4347 26.6673C9.364 28.0807 7.828 28.7873 6.808 28.014C5.78533 27.238 5.95466 25.494 6.292 22.0047L6.38 21.1033C6.476 20.1113 6.524 19.6153 6.38 19.1567C6.23866 18.6967 5.92 18.3247 5.28533 17.5833L4.70667 16.906C2.47067 14.2927 1.35333 12.9847 1.74266 11.73C2.132 10.4753 3.77333 10.1033 7.05333 9.36202L7.90133 9.17002C8.83333 8.95935 9.29867 8.85402 9.67333 8.57002C10.048 8.28602 10.2867 7.85535 10.7667 6.99402L11.204 6.21002Z" stroke="#292929" stroke-width="1.5"/>
</svg>
