<svg width="27" height="27" viewBox="0 0 27 27" fill="none" xmlns="http://www.w3.org/2000/svg">
<path d="M9.53862 4.5446C11.2281 1.51487 12.0722 0 13.335 0C14.5978 0 15.4419 1.51487 17.1314 4.5446L17.5688 5.3287C18.0488 6.19015 18.2888 6.62087 18.6622 6.90491C19.0356 7.18894 19.5023 7.29429 20.4357 7.50499L21.2838 7.69701C24.5641 8.43978 26.203 8.81049 26.5937 10.0653C26.9831 11.3188 25.8656 12.627 23.6294 15.242L23.0507 15.9181C22.4159 16.6609 22.0972 17.0329 21.9545 17.4916C21.8119 17.9517 21.8599 18.4478 21.9559 19.4386L22.0439 20.3413C22.3813 23.8311 22.5506 25.5754 21.5292 26.3501C20.5077 27.1249 18.9716 26.4181 15.9019 25.0046L15.1058 24.6392C14.2338 24.2365 13.7977 24.0365 13.335 24.0365C12.8723 24.0365 12.4362 24.2365 11.5642 24.6392L10.7694 25.0046C7.69843 26.4181 6.16227 27.1249 5.14217 26.3515C4.1194 25.5754 4.28875 23.8311 4.62612 20.3413L4.71413 19.4399C4.81013 18.4478 4.85814 17.9517 4.71413 17.493C4.57278 17.0329 4.25408 16.6609 3.61935 15.9194L3.04062 15.242C0.804395 12.6283 -0.313052 11.3202 0.0763211 10.0653C0.465694 8.81049 2.10719 8.43844 5.38753 7.69701L6.23561 7.50499C7.16771 7.29429 7.63309 7.18894 8.00779 6.90491C8.3825 6.62087 8.62119 6.19015 9.10124 5.3287L9.53862 4.5446Z" fill="#FF7235"/>
</svg>
