<svg width="18" height="20" viewBox="0 0 18 20" fill="none" xmlns="http://www.w3.org/2000/svg">
<path d="M2.30775 19.5C1.80258 19.5 1.375 19.325 1.025 18.975C0.675 18.625 0.5 18.1974 0.5 17.6923V4.30777C0.5 3.8026 0.675 3.37502 1.025 3.02502C1.375 2.67502 1.80258 2.50002 2.30775 2.50002H3.69225V0.384766H5.23075V2.50002H12.8077V0.384766H14.3077V2.50002H15.6923C16.1974 2.50002 16.625 2.67502 16.975 3.02502C17.325 3.37502 17.5 3.8026 17.5 4.30777V17.6923C17.5 18.1974 17.325 18.625 16.975 18.975C16.625 19.325 16.1974 19.5 15.6923 19.5H2.30775ZM2.30775 18H15.6923C15.7692 18 15.8398 17.9679 15.9038 17.9038C15.9679 17.8398 16 17.7693 16 17.6923V8.30777H2V17.6923C2 17.7693 2.03208 17.8398 2.09625 17.9038C2.16025 17.9679 2.23075 18 2.30775 18ZM2 6.80777H16V4.30777C16 4.23077 15.9679 4.16026 15.9038 4.09626C15.8398 4.0321 15.7692 4.00002 15.6923 4.00002H2.30775C2.23075 4.00002 2.16025 4.0321 2.09625 4.09626C2.03208 4.16026 2 4.23077 2 4.30777V6.80777Z" fill="#292929"/>
</svg>
