<svg width="68" height="24" viewBox="0 0 68 24" fill="none" xmlns="http://www.w3.org/2000/svg">
<path d="M50.2722 12.7H67.0322V14.8H50.2722V12.7ZM52.3122 3.12001H64.9922V8.14001H54.9722V10.14H52.3522V6.26001H62.3722V5.14001H52.3122V3.12001ZM52.3522 9.36001H65.3522V11.38H52.3522V9.36001ZM57.3322 10.34H59.9722V13.84H57.3322V10.34ZM52.1122 15.84H65.1122V21.24H62.4522V17.96H52.1122V15.84Z" fill="white"/>
<path d="M44.6336 2.76001H47.2936V21.28H44.6336V2.76001ZM39.1736 4.68001H41.7936C41.7936 6.09334 41.6536 7.44668 41.3736 8.74001C41.1069 10.02 40.6536 11.2267 40.0136 12.36C39.3869 13.4933 38.5202 14.5467 37.4136 15.52C36.3202 16.48 34.9536 17.36 33.3136 18.16L31.9136 16.06C33.7002 15.1933 35.1202 14.24 36.1736 13.2C37.2402 12.1467 38.0069 10.96 38.4736 9.64001C38.9402 8.30668 39.1736 6.81334 39.1736 5.16001V4.68001ZM32.9136 4.68001H40.4136V6.80001H32.9136V4.68001Z" fill="white"/>
<path d="M29.9307 14.3442H21.7959V12.147H29.9307V14.3442Z" fill="white"/>
<path d="M14.5835 2.78001H17.2635V16.28H14.5835V2.78001ZM4.36354 18.84H17.6435V20.98H4.36354V18.84ZM4.36354 14.94H7.00354V19.9H4.36354V14.94ZM3.80354 3.98001H5.70354V5.60001C5.70354 6.38668 5.65687 7.17335 5.56354 7.96001C5.4702 8.73334 5.30354 9.47335 5.06354 10.18C4.83687 10.8867 4.51687 11.5333 4.10354 12.12C3.70354 12.6933 3.1902 13.1733 2.56354 13.56L1.12354 11.7C1.6702 11.3533 2.11687 10.9533 2.46354 10.5C2.8102 10.0333 3.07687 9.53335 3.26354 9.00001C3.46354 8.45335 3.60354 7.89334 3.68354 7.32001C3.76354 6.73334 3.80354 6.16001 3.80354 5.60001V3.98001ZM4.48354 3.98001H6.32354V5.60001C6.32354 6.14668 6.3502 6.70668 6.40354 7.28001C6.4702 7.85335 6.5902 8.42001 6.76354 8.98001C6.9502 9.52668 7.20354 10.0467 7.52354 10.54C7.84354 11.02 8.26354 11.4533 8.78354 11.84L7.52354 13.78C6.89687 13.3533 6.37687 12.8333 5.96354 12.22C5.56354 11.6067 5.25687 10.9333 5.04354 10.2C4.84354 9.45335 4.69687 8.68668 4.60354 7.90001C4.52354 7.11334 4.48354 6.34668 4.48354 5.60001V3.98001ZM8.74354 3.98001H10.6035V5.60001C10.6035 6.34668 10.5569 7.12001 10.4635 7.92001C10.3835 8.70668 10.2369 9.47334 10.0235 10.22C9.8102 10.9533 9.50354 11.6267 9.10354 12.24C8.70354 12.84 8.17687 13.3533 7.52354 13.78L6.30354 11.84C6.82354 11.4667 7.24354 11.04 7.56354 10.56C7.88354 10.0667 8.1302 9.54668 8.30353 9.00001C8.47687 8.44001 8.5902 7.87335 8.64354 7.30001C8.7102 6.72668 8.74354 6.16001 8.74354 5.60001V3.98001ZM9.36353 3.98001H11.2435V5.60001C11.2435 6.38668 11.3169 7.16668 11.4635 7.94001C11.6235 8.70001 11.8969 9.40668 12.2835 10.06C12.6702 10.7 13.2235 11.2467 13.9435 11.7L12.4835 13.56C11.6702 13.0533 11.0302 12.3867 10.5635 11.56C10.1102 10.72 9.79687 9.78668 9.62354 8.76001C9.4502 7.73335 9.36353 6.68001 9.36353 5.60001V3.98001Z" fill="#FF7235"/>
</svg>
