<svg width="120" height="42" viewBox="0 0 120 42" fill="none" xmlns="http://www.w3.org/2000/svg">
<path d="M88.7328 22.3949H118.309V26.0699H88.7328V22.3949ZM92.3328 5.62988H114.709V14.4149H97.0269V17.9149H92.4034V11.1249H110.086V9.16488H92.3328V5.62988ZM92.4034 16.5499H115.345V20.0849H92.4034V16.5499ZM101.192 18.2649H105.85V24.3899H101.192V18.2649ZM91.9798 27.8899H114.921V37.3399H110.227V31.5999H91.9798V27.8899Z" fill="#424242"/>
<path d="M78.7826 5H83.4767V37.41H78.7826V5ZM69.1473 8.36H73.7709C73.7709 10.8333 73.5238 13.2017 73.0297 15.465C72.5591 17.705 71.7591 19.8167 70.6297 21.8C69.5238 23.7833 67.9944 25.6267 66.0415 27.33C64.112 29.01 61.7003 30.55 58.8062 31.95L56.3356 28.275C59.4885 26.7583 61.9944 25.09 63.8532 23.27C65.7356 21.4267 67.0885 19.35 67.912 17.04C68.7356 14.7067 69.1473 12.0933 69.1473 9.2V8.36ZM58.1003 8.36H71.3356V12.07H58.1003V8.36Z" fill="#424242"/>
<path d="M52.8361 25.2725H38.4806V21.4272H52.8361V25.2725Z" fill="#424242"/>
<path d="M25.7529 5.03516H30.4824V28.6602H25.7529V5.03516ZM7.71765 33.1402H31.1529V36.8852H7.71765V33.1402ZM7.71765 26.3152H12.3765V34.9952H7.71765V26.3152ZM6.72941 7.13516H10.0824V9.97015C10.0824 11.3468 10 12.7235 9.83529 14.1002C9.67059 15.4535 9.37647 16.7485 8.95294 17.9852C8.55294 19.2218 7.98823 20.3535 7.25882 21.3802C6.55294 22.3835 5.64706 23.2235 4.54118 23.9002L2 20.6452C2.96471 20.0385 3.75294 19.3385 4.36471 18.5452C4.97647 17.7285 5.44706 16.8535 5.77647 15.9202C6.12941 14.9635 6.37647 13.9835 6.51765 12.9802C6.65882 11.9535 6.72941 10.9502 6.72941 9.97015V7.13516ZM7.92941 7.13516H11.1765V9.97015C11.1765 10.9268 11.2235 11.9068 11.3176 12.9102C11.4353 13.9135 11.6471 14.9052 11.9529 15.8852C12.2824 16.8418 12.7294 17.7518 13.2941 18.6152C13.8588 19.4552 14.6 20.2135 15.5176 20.8902L13.2941 24.2852C12.1882 23.5385 11.2706 22.6285 10.5412 21.5552C9.83529 20.4818 9.29412 19.3035 8.91765 18.0202C8.56471 16.7135 8.30588 15.3718 8.14118 13.9952C8 12.6185 7.92941 11.2768 7.92941 9.97015V7.13516ZM15.4471 7.13516H18.7294V9.97015C18.7294 11.2768 18.6471 12.6302 18.4824 14.0302C18.3412 15.4068 18.0824 16.7485 17.7059 18.0552C17.3294 19.3385 16.7882 20.5168 16.0824 21.5902C15.3765 22.6402 14.4471 23.5385 13.2941 24.2852L11.1412 20.8902C12.0588 20.2368 12.8 19.4902 13.3647 18.6502C13.9294 17.7868 14.3647 16.8768 14.6706 15.9202C14.9765 14.9402 15.1765 13.9485 15.2706 12.9452C15.3882 11.9418 15.4471 10.9502 15.4471 9.97015V7.13516ZM16.5412 7.13516H19.8588V9.97015C19.8588 11.3468 19.9882 12.7118 20.2471 14.0652C20.5294 15.3952 21.0118 16.6318 21.6941 17.7752C22.3765 18.8952 23.3529 19.8518 24.6235 20.6452L22.0471 23.9002C20.6118 23.0135 19.4824 21.8468 18.6588 20.4002C17.8588 18.9302 17.3059 17.2968 17 15.5002C16.6941 13.7035 16.5412 11.8602 16.5412 9.97015V7.13516Z" fill="#FF7235"/>
</svg>
