<svg width="1920" height="3579" viewBox="0 0 1920 3579" fill="none" xmlns="http://www.w3.org/2000/svg">
<g clip-path="url(#clip0_990_2054)">
<rect width="1920" height="3579" fill="white"/>
<g clip-path="url(#clip1_990_2054)">
<circle opacity="0.4" cx="426.039" cy="2366.92" r="405" transform="rotate(23.7026 426.039 2366.92)" fill="url(#paint0_radial_990_2054)"/>
<circle opacity="0.4" cx="-13.3583" cy="2086.64" r="405" transform="rotate(23.7026 -13.3583 2086.64)" fill="url(#paint1_radial_990_2054)"/>
</g>
<circle opacity="0.4" cx="1775.64" cy="1451.64" r="405" transform="rotate(23.7026 1775.64 1451.64)" fill="url(#paint2_radial_990_2054)"/>
<path d="M130.272 40.7H147.032V42.8H130.272V40.7ZM132.312 31.12H144.992V36.14H134.972V38.14H132.352V34.26H142.372V33.14H132.312V31.12ZM132.352 37.36H145.352V39.38H132.352V37.36ZM137.332 38.34H139.972V41.84H137.332V38.34ZM132.112 43.84H145.112V49.24H142.452V45.96H132.112V43.84Z" fill="white"/>
<path d="M124.634 30.76H127.294V49.28H124.634V30.76ZM119.174 32.68H121.794C121.794 34.0933 121.654 35.4467 121.374 36.74C121.107 38.02 120.654 39.2267 120.014 40.36C119.387 41.4933 118.52 42.5467 117.414 43.52C116.32 44.48 114.954 45.36 113.314 46.16L111.914 44.06C113.7 43.1933 115.12 42.24 116.174 41.2C117.24 40.1467 118.007 38.96 118.474 37.64C118.94 36.3067 119.174 34.8133 119.174 33.16V32.68ZM112.914 32.68H120.414V34.8H112.914V32.68Z" fill="white"/>
<path d="M109.931 42.3442H101.796V40.147H109.931V42.3442Z" fill="white"/>
<path d="M94.5835 30.78H97.2635V44.28H94.5835V30.78ZM84.3635 46.84H97.6435V48.98H84.3635V46.84ZM84.3635 42.94H87.0035V47.9H84.3635V42.94ZM83.8035 31.98H85.7035V33.6C85.7035 34.3867 85.6569 35.1733 85.5635 35.96C85.4702 36.7333 85.3035 37.4733 85.0635 38.18C84.8369 38.8867 84.5169 39.5333 84.1035 40.12C83.7035 40.6933 83.1902 41.1733 82.5635 41.56L81.1235 39.7C81.6702 39.3533 82.1169 38.9533 82.4635 38.5C82.8102 38.0333 83.0769 37.5333 83.2635 37C83.4635 36.4533 83.6035 35.8933 83.6835 35.32C83.7635 34.7333 83.8035 34.16 83.8035 33.6V31.98ZM84.4835 31.98H86.3235V33.6C86.3235 34.1467 86.3502 34.7067 86.4035 35.28C86.4702 35.8533 86.5902 36.42 86.7635 36.98C86.9502 37.5267 87.2035 38.0467 87.5235 38.54C87.8435 39.02 88.2635 39.4533 88.7835 39.84L87.5235 41.78C86.8969 41.3533 86.3769 40.8333 85.9635 40.22C85.5635 39.6067 85.2569 38.9333 85.0435 38.2C84.8435 37.4533 84.6969 36.6867 84.6035 35.9C84.5235 35.1133 84.4835 34.3467 84.4835 33.6V31.98ZM88.7435 31.98H90.6035V33.6C90.6035 34.3467 90.5569 35.12 90.4635 35.92C90.3835 36.7067 90.2369 37.4733 90.0235 38.22C89.8102 38.9533 89.5035 39.6267 89.1035 40.24C88.7035 40.84 88.1769 41.3533 87.5235 41.78L86.3035 39.84C86.8235 39.4667 87.2435 39.04 87.5635 38.56C87.8835 38.0667 88.1302 37.5467 88.3035 37C88.4769 36.44 88.5902 35.8733 88.6435 35.3C88.7102 34.7267 88.7435 34.16 88.7435 33.6V31.98ZM89.3635 31.98H91.2435V33.6C91.2435 34.3867 91.3169 35.1667 91.4635 35.94C91.6235 36.7 91.8969 37.4067 92.2835 38.06C92.6702 38.7 93.2235 39.2467 93.9435 39.7L92.4835 41.56C91.6702 41.0533 91.0302 40.3867 90.5635 39.56C90.1102 38.72 89.7969 37.7867 89.6235 36.76C89.4502 35.7333 89.3635 34.68 89.3635 33.6V31.98Z" fill="#FF7235"/>
<path d="M1388.17 31.6738V37.7031H1390.61V39.3027H1388.17V47.582H1386.22V31.6738H1388.17ZM1383.81 33.1855V34.7676H1378.32V42.0625C1380.79 42.0625 1382.74 41.9395 1384.93 41.5527L1385.16 43.2051C1382.7 43.627 1380.56 43.6973 1377.69 43.6973H1376.37V33.1855H1383.81ZM1404.5 31.6738V47.582H1402.53V31.6738H1404.5ZM1395.94 32.834C1398.33 32.834 1400.07 35.0137 1400.08 38.4414C1400.07 41.9043 1398.33 44.0664 1395.94 44.0664C1393.53 44.0664 1391.79 41.9043 1391.79 38.4414C1391.79 35.0137 1393.53 32.834 1395.94 32.834ZM1395.94 34.5918C1394.58 34.5918 1393.67 36.0156 1393.67 38.4414C1393.67 40.8848 1394.58 42.3086 1395.94 42.3086C1397.27 42.3086 1398.19 40.8848 1398.19 38.4414C1398.19 36.0156 1397.27 34.5918 1395.94 34.5918ZM1421.35 44.1016V45.7188H1406.83V44.1016H1413.09V41.5176H1408.56V36.3145H1417.7V34.3457H1408.52V32.7637H1419.63V37.8613H1410.51V39.918H1420V41.5176H1415.03V44.1016H1421.35ZM1435.03 33.2207V35.0137C1435.03 37.1406 1435.03 39.3379 1434.45 42.6777L1432.46 42.502C1433.08 39.373 1433.08 37.0703 1433.08 35.0137V34.8027H1423.92V33.2207H1435.03ZM1436.88 43.7852V45.3848H1422.39V43.7852H1436.88ZM1456.74 44.0137V45.5957H1442.22V44.0137H1448.44V40.3398H1450.38V44.0137H1456.74ZM1450.43 33.8008C1450.43 36.209 1452.84 38.582 1456.18 39.1094L1455.33 40.7266C1452.64 40.2168 1450.45 38.6787 1449.39 36.5957C1448.34 38.6699 1446.16 40.2344 1443.49 40.7266L1442.64 39.1094C1445.96 38.582 1448.34 36.1914 1448.35 33.8008V32.6406H1450.43V33.8008ZM1471.42 31.6738V47.5645H1469.54V39.4082H1467.83V46.8262H1466V32.0957H1467.83V37.8262H1469.54V31.6738H1471.42ZM1464.65 33.6777C1464.65 37.9668 1463.3 41.6582 1458.78 44.2422L1457.65 42.8887C1461.04 40.9287 1462.47 38.415 1462.75 35.2422H1458.39V33.6777H1464.65Z" fill="white"/>
<path d="M1549.49 33.2734V34.8203H1546.9C1546.93 36.2266 1548.02 37.6592 1549.98 38.3008L1549.14 39.7246C1547.62 39.2588 1546.58 38.3096 1546.01 37.1406C1545.43 38.415 1544.38 39.4785 1542.88 40.0234L1542 38.5469C1543.94 37.8174 1545.01 36.2617 1545.06 34.8203H1542.44V33.2734H1545.06V31.7441H1546.9V33.2734H1549.49ZM1555.59 31.6914V40.0762H1553.72V36.6484H1552.2V39.9707H1550.35V31.9902H1552.2V35.084H1553.72V31.6914H1555.59ZM1555.59 40.6914V44.6816H1546.8V45.9121H1556.15V47.3711H1544.85V43.2578H1553.65V42.168H1544.83V40.6914H1555.59ZM1570.76 31.6914V43.3809H1568.82V31.6914H1570.76ZM1571.2 45.666V47.248H1560.18V42.4316H1562.14V45.666H1571.2ZM1565.7 32.7637V37.668H1560.32V39.6719C1563.19 39.6631 1565.08 39.5752 1567.28 39.1797L1567.49 40.7441C1565.1 41.1836 1563.01 41.2715 1559.75 41.2715H1558.4V36.1914H1563.76V34.3281H1558.37V32.7637H1565.7ZM1579.11 36.1914C1579.11 38.793 1580.64 41.5352 1583.2 42.6074L1582.13 44.1543C1580.25 43.3457 1578.88 41.6758 1578.16 39.6543C1577.42 41.834 1576.03 43.6621 1574.17 44.541L1573.04 43.0117C1575.56 41.8516 1577.12 38.8984 1577.12 36.1914V34.8555H1573.62V33.2383H1582.59V34.8555H1579.11V36.1914ZM1586.33 31.6738V47.5645H1584.36V31.6738H1586.33ZM1607.46 44.0137V45.5957H1592.94V44.0137H1599.16V40.3398H1601.1V44.0137H1607.46ZM1601.15 33.8008C1601.15 36.209 1603.56 38.582 1606.9 39.1094L1606.05 40.7266C1603.37 40.2168 1601.17 38.6787 1600.11 36.5957C1599.06 38.6699 1596.88 40.2344 1594.21 40.7266L1593.36 39.1094C1596.69 38.582 1599.06 36.1914 1599.08 33.8008V32.6406H1601.15V33.8008ZM1622.14 31.6738V47.5645H1620.26V39.4082H1618.55V46.8262H1616.72V32.0957H1618.55V37.8262H1620.26V31.6738H1622.14ZM1615.37 33.6777C1615.37 37.9668 1614.02 41.6582 1609.5 44.2422L1608.38 42.8887C1611.76 40.9287 1613.19 38.415 1613.47 35.2422H1609.11V33.6777H1615.37Z" fill="white"/>
<path d="M1707.37 44.1016V45.7188H1692.85V44.1016H1699.11V41.5176H1694.58V36.3145H1703.72V34.3457H1694.54V32.7637H1705.65V37.8613H1696.53V39.918H1706.02V41.5176H1701.04V44.1016H1707.37ZM1721.05 33.2207V35.0137C1721.05 37.1406 1721.05 39.3379 1720.47 42.6777L1718.48 42.502C1719.1 39.373 1719.1 37.0703 1719.1 35.0137V34.8027H1709.94V33.2207H1721.05ZM1722.89 43.7852V45.3848H1708.41V43.7852H1722.89ZM1737.2 31.6914V43.1699H1735.23V31.6914H1737.2ZM1737.64 45.666V47.248H1726.69V42.0098H1728.66V45.666H1737.64ZM1728.54 32.7285C1730.95 32.7285 1732.81 34.3984 1732.81 36.7012C1732.81 39.0566 1730.95 40.6914 1728.54 40.6914C1726.11 40.6914 1724.25 39.0566 1724.25 36.7012C1724.25 34.3984 1726.11 32.7285 1728.54 32.7285ZM1728.54 34.4336C1727.18 34.4336 1726.15 35.3301 1726.16 36.7012C1726.15 38.1074 1727.18 38.9863 1728.54 38.9863C1729.86 38.9863 1730.89 38.1074 1730.89 36.7012C1730.89 35.3301 1729.86 34.4336 1728.54 34.4336ZM1745.25 32.6758L1741.16 47.916H1739.19L1743.3 32.6758H1745.25ZM1759.21 31.6738V47.5645H1757.26V31.6738H1759.21ZM1746.04 43.1523C1747.31 43.1436 1748.74 43.1436 1750.25 43.0996V41.6406C1748.45 41.3594 1747.29 40.2607 1747.29 38.7578C1747.29 36.9648 1748.88 35.7695 1751.2 35.7695C1753.53 35.7695 1755.15 36.9648 1755.15 38.7578C1755.15 40.252 1753.98 41.3418 1752.2 41.623V43.0293C1753.59 42.9678 1755 42.8535 1756.33 42.6777L1756.47 44.1367C1752.97 44.7344 1749.19 44.7695 1746.33 44.7695L1746.04 43.1523ZM1756.05 33.502V35.0488H1746.38V33.502H1750.25V31.7266H1752.2V33.502H1756.05ZM1751.2 37.2637C1750 37.2812 1749.14 37.8262 1749.16 38.7578C1749.14 39.6719 1750 40.2168 1751.2 40.1992C1752.44 40.2168 1753.27 39.6719 1753.27 38.7578C1753.27 37.8262 1752.44 37.2812 1751.2 37.2637ZM1774.86 31.6914V43.7148H1772.89V42.3262H1769.78V40.9551H1772.89V31.6914H1774.86ZM1775.22 45.666V47.248H1763.57V42.5547H1765.52V45.666H1775.22ZM1761.46 38.8281C1764.4 38.8105 1768.33 38.7754 1771.71 38.3535L1771.81 39.7598C1770.5 39.9795 1769.15 40.1289 1767.81 40.2168V43.2754H1765.86V40.3223C1764.37 40.3838 1762.96 40.3926 1761.71 40.3926L1761.46 38.8281ZM1766.65 32.2715C1768.97 32.2715 1770.58 33.4141 1770.6 35.084C1770.58 36.7891 1768.97 37.8789 1766.65 37.8789C1764.29 37.8789 1762.67 36.7891 1762.67 35.084C1762.67 33.4141 1764.29 32.2715 1766.65 32.2715ZM1766.65 33.7129C1765.38 33.7129 1764.52 34.2227 1764.52 35.084C1764.52 35.9453 1765.38 36.4551 1766.65 36.4551C1767.86 36.4551 1768.72 35.9453 1768.74 35.084C1768.72 34.2227 1767.86 33.7129 1766.65 33.7129ZM1789.53 31.6738V37.8789H1791.89V39.5137H1789.53V47.5293H1787.58V31.6738H1789.53ZM1785.33 33.3262C1785.33 38.002 1783.4 42.0977 1778.11 44.6992L1777 43.1875C1780.87 41.2627 1782.96 38.5557 1783.36 34.9434H1777.86V33.3262H1785.33ZM1805.88 31.6738V40.1992H1803.91V31.6738H1805.88ZM1797.3 40.9375V42.5723H1803.93V40.9375H1805.88V47.3711H1795.37V40.9375H1797.3ZM1797.3 45.7891H1803.93V44.1016H1797.3V45.7891ZM1797.21 32.377C1799.66 32.3594 1801.49 33.8887 1801.49 36.1035C1801.49 38.2656 1799.66 39.7949 1797.21 39.7949C1794.75 39.7949 1792.93 38.2656 1792.93 36.1035C1792.93 33.8887 1794.75 32.3594 1797.21 32.377ZM1797.21 34.0117C1795.83 34.0117 1794.82 34.8203 1794.84 36.1035C1794.82 37.3691 1795.83 38.1777 1797.21 38.1953C1798.59 38.1777 1799.57 37.3691 1799.57 36.1035C1799.57 34.8203 1798.59 34.0117 1797.21 34.0117Z" fill="white"/>
</g>
<defs>
<radialGradient id="paint0_radial_990_2054" cx="0" cy="0" r="1" gradientUnits="userSpaceOnUse" gradientTransform="translate(426.039 2366.92) rotate(90) scale(405)">
<stop stop-color="#FF7235" stop-opacity="0.16"/>
<stop offset="1" stop-color="#FF7235" stop-opacity="0.16"/>
</radialGradient>
<radialGradient id="paint1_radial_990_2054" cx="0" cy="0" r="1" gradientUnits="userSpaceOnUse" gradientTransform="translate(-13.3583 2086.64) rotate(90) scale(405)">
<stop stop-color="#FF7235" stop-opacity="0.16"/>
<stop offset="1" stop-color="#FF7235" stop-opacity="0.16"/>
</radialGradient>
<radialGradient id="paint2_radial_990_2054" cx="0" cy="0" r="1" gradientUnits="userSpaceOnUse" gradientTransform="translate(1775.64 1451.64) rotate(90) scale(405)">
<stop stop-color="#FF7235" stop-opacity="0.16"/>
<stop offset="1" stop-color="#FF7235" stop-opacity="0.16"/>
</radialGradient>
<clipPath id="clip0_990_2054">
<rect width="1920" height="3579" fill="white"/>
</clipPath>
<clipPath id="clip1_990_2054">
<rect width="960" height="1241" fill="white" transform="translate(0 1660)"/>
</clipPath>
</defs>
</svg>
